<svg xmlns="http://www.w3.org/2000/svg" xmlns:xlink="http://www.w3.org/1999/xlink" version="1.2" width="175.11mm" height="17.12mm" viewBox="8.4758 -0.0000 99.6446 9.7438">
<line transform="translate(8.5358, 8.1317)" stroke-linejoin="round" stroke-linecap="round" stroke-width="0.1000" stroke="currentColor" x1="0.0500" y1="-0.0000" x2="99.5346" y2="-0.0000"/>
<line transform="translate(8.5358, 6.6317)" stroke-linejoin="round" stroke-linecap="round" stroke-width="0.1000" stroke="currentColor" x1="0.0500" y1="-0.0000" x2="99.5346" y2="-0.0000"/>
<line transform="translate(8.5358, 5.1317)" stroke-linejoin="round" stroke-linecap="round" stroke-width="0.1000" stroke="currentColor" x1="0.0500" y1="-0.0000" x2="99.5346" y2="-0.0000"/>
<line transform="translate(8.5358, 3.6317)" stroke-linejoin="round" stroke-linecap="round" stroke-width="0.1000" stroke="currentColor" x1="0.0500" y1="-0.0000" x2="99.5346" y2="-0.0000"/>
<line transform="translate(8.5358, 2.1317)" stroke-linejoin="round" stroke-linecap="round" stroke-width="0.1000" stroke="currentColor" x1="0.0500" y1="-0.0000" x2="99.5346" y2="-0.0000"/>
<line transform="translate(8.5358, 0.6317)" stroke-linejoin="round" stroke-linecap="round" stroke-width="0.1000" stroke="currentColor" x1="0.0500" y1="-0.0000" x2="99.5346" y2="-0.0000"/>
<rect transform="translate(107.9305, 4.3817)" x="0.0000" y="-3.7500" width="0.1900" height="7.5000" ry="0.0000" fill="currentColor"/>
<rect transform="translate(67.9238, 4.3817)" x="0.0000" y="-3.7500" width="0.1900" height="7.5000" ry="0.0000" fill="currentColor"/>
<rect transform="translate(48.6866, 4.3817)" x="0.0000" y="-3.7500" width="0.1900" height="7.5000" ry="0.0000" fill="currentColor"/>
<rect transform="translate(87.3622, 4.3817)" x="0.0000" y="-3.7500" width="0.1900" height="7.5000" ry="0.0000" fill="currentColor"/>
<rect transform="translate(29.2481, 4.3817)" x="0.0000" y="-3.7500" width="0.1900" height="7.5000" ry="0.0000" fill="currentColor"/>
<g color="rgb(100.0%, 100.0%, 100.0%)">
<rect transform="translate(96.2281, 2.1317)" x="0.0990" y="-0.6317" width="0.9902" height="1.2633" ry="0.0000" fill="currentColor"/>
</g>
<text transform="translate(96.3271, 2.7292)" font-family="Century Schoolbook L" font-weight="bold" font-size="1.7461" text-anchor="start" fill="currentColor">
<tspan>
3</tspan>
</text>
<g color="rgb(100.0%, 100.0%, 100.0%)">
<rect transform="translate(93.6698, 3.6317)" x="0.0990" y="-0.6317" width="0.9902" height="1.2633" ry="0.0000" fill="currentColor"/>
</g>
<text transform="translate(93.7688, 4.2292)" font-family="Century Schoolbook L" font-weight="bold" font-size="1.7461" text-anchor="start" fill="currentColor">
<tspan>
0</tspan>
</text>
<g color="rgb(100.0%, 100.0%, 100.0%)">
<rect transform="translate(102.8139, 2.1317)" x="0.0990" y="-0.6317" width="0.9902" height="1.2633" ry="0.0000" fill="currentColor"/>
</g>
<text transform="translate(102.9129, 2.7292)" font-family="Century Schoolbook L" font-weight="bold" font-size="1.7461" text-anchor="start" fill="currentColor">
<tspan>
0</tspan>
</text>
<g color="rgb(100.0%, 100.0%, 100.0%)">
<rect transform="translate(79.3479, 0.6317)" x="0.0990" y="-0.6317" width="0.9902" height="1.2633" ry="0.0000" fill="currentColor"/>
</g>
<text transform="translate(79.4470, 1.2292)" font-family="Century Schoolbook L" font-weight="bold" font-size="1.7461" text-anchor="start" fill="currentColor">
<tspan>
0</tspan>
</text>
<g color="rgb(100.0%, 100.0%, 100.0%)">
<rect transform="translate(83.3754, 0.6317)" x="0.0990" y="-0.6317" width="0.9902" height="1.2633" ry="0.0000" fill="currentColor"/>
</g>
<text transform="translate(83.4744, 1.2292)" font-family="Century Schoolbook L" font-weight="bold" font-size="1.7461" text-anchor="start" fill="currentColor">
<tspan>
3</tspan>
</text>
<g color="rgb(100.0%, 100.0%, 100.0%)">
<rect transform="translate(88.5532, 6.6317)" x="0.0990" y="-0.6317" width="0.9902" height="1.2633" ry="0.0000" fill="currentColor"/>
</g>
<text transform="translate(88.6522, 7.2292)" font-family="Century Schoolbook L" font-weight="bold" font-size="1.7461" text-anchor="start" fill="currentColor">
<tspan>
2</tspan>
</text>
<g color="rgb(100.0%, 100.0%, 100.0%)">
<rect transform="translate(88.5532, 2.1317)" x="0.0990" y="-0.6317" width="0.9902" height="1.2633" ry="0.0000" fill="currentColor"/>
</g>
<text transform="translate(88.6522, 2.7292)" font-family="Century Schoolbook L" font-weight="bold" font-size="1.7461" text-anchor="start" fill="currentColor">
<tspan>
3</tspan>
</text>
<g color="rgb(100.0%, 100.0%, 100.0%)">
<rect transform="translate(91.1115, 5.1317)" x="0.0990" y="-0.6317" width="0.9902" height="1.2633" ry="0.0000" fill="currentColor"/>
</g>
<text transform="translate(91.2105, 5.7292)" font-family="Century Schoolbook L" font-weight="bold" font-size="1.7461" text-anchor="start" fill="currentColor">
<tspan>
0</tspan>
</text>
<text transform="translate(10.2257, 9.7097)" font-family="Century Schoolbook L" font-style="italic" font-size="1.3860" text-anchor="start" fill="currentColor">
<tspan>
8</tspan>
</text>
<g color="rgb(100.0%, 100.0%, 100.0%)">
<rect transform="translate(32.9974, 3.6317)" x="0.0990" y="-0.6317" width="0.9902" height="1.2633" ry="0.0000" fill="currentColor"/>
</g>
<text transform="translate(33.0964, 4.2292)" font-family="Century Schoolbook L" font-weight="bold" font-size="1.7461" text-anchor="start" fill="currentColor">
<tspan>
0</tspan>
</text>
<g color="rgb(100.0%, 100.0%, 100.0%)">
<rect transform="translate(35.5557, 2.1317)" x="0.0990" y="-0.6317" width="0.9902" height="1.2633" ry="0.0000" fill="currentColor"/>
</g>
<text transform="translate(35.6547, 2.7292)" font-family="Century Schoolbook L" font-weight="bold" font-size="1.7461" text-anchor="start" fill="currentColor">
<tspan>
0</tspan>
</text>
<g color="rgb(100.0%, 100.0%, 100.0%)">
<rect transform="translate(105.3722, 2.1317)" x="0.0990" y="-0.6317" width="0.9902" height="1.2633" ry="0.0000" fill="currentColor"/>
</g>
<text transform="translate(105.4712, 2.7292)" font-family="Century Schoolbook L" font-weight="bold" font-size="1.7461" text-anchor="start" fill="currentColor">
<tspan>
0</tspan>
</text>
<g color="rgb(100.0%, 100.0%, 100.0%)">
<rect transform="translate(24.1315, 0.6317)" x="0.0990" y="-0.6317" width="0.9902" height="1.2633" ry="0.0000" fill="currentColor"/>
</g>
<text transform="translate(24.2305, 1.2292)" font-family="Century Schoolbook L" font-weight="bold" font-size="1.7461" text-anchor="start" fill="currentColor">
<tspan>
0</tspan>
</text>
<path transform="translate(9.3358, 5.8817) scale(0.0040, -0.0040)" d="M376 262c4 0 9 1 13 1c155 0 256 -128 256 -261c0 -76 -33 -154 -107 -210c-22 -17 -47 -28 -73 -36c3 -35 5 -70 5 -105c0 -19 -1 -39 -2 -58c-7 -120 -90 -228 -208 -228c-108 0 -195 88 -195 197c0 58 53 103 112 103c54 0 95 -47 95 -103c0 -52 -43 -95 -95 -95
c-11 0 -21 2 -31 6c26 -39 68 -65 117 -65c96 0 157 92 163 191c1 18 2 37 2 55c0 31 -1 61 -4 92c-29 -5 -58 -8 -89 -8c-188 0 -333 172 -333 374c0 177 131 306 248 441c-19 62 -37 125 -45 190c-6 52 -7 104 -7 156c0 115 55 224 149 292c3 2 7 3 10 3c4 0 7 0 10 -3
c71 -84 133 -245 133 -358c0 -143 -86 -255 -180 -364c21 -68 39 -138 56 -207zM461 -203c68 24 113 95 113 164c0 90 -66 179 -173 190c24 -116 46 -231 60 -354zM74 28c0 -135 129 -247 264 -247c28 0 55 2 82 6c-14 127 -37 245 -63 364c-79 -8 -124 -61 -124 -119
c0 -44 25 -91 81 -123c5 -5 7 -10 7 -15c0 -11 -10 -22 -22 -22c-3 0 -6 1 -9 2c-80 43 -117 115 -117 185c0 88 58 174 160 197c-14 58 -29 117 -46 175c-107 -121 -213 -243 -213 -403zM408 1045c-99 -48 -162 -149 -162 -259c0 -74 18 -133 36 -194
c80 97 146 198 146 324c0 55 -4 79 -20 129z" fill="currentColor"/>
<g color="rgb(100.0%, 100.0%, 100.0%)">
<rect transform="translate(26.6898, 0.6317)" x="0.0990" y="-0.6317" width="0.9902" height="1.2633" ry="0.0000" fill="currentColor"/>
</g>
<text transform="translate(26.7888, 1.2292)" font-family="Century Schoolbook L" font-weight="bold" font-size="1.7461" text-anchor="start" fill="currentColor">
<tspan>
2</tspan>
</text>
<g color="rgb(100.0%, 100.0%, 100.0%)">
<rect transform="translate(30.4391, 0.6317)" x="0.0990" y="-0.6317" width="0.9902" height="1.2633" ry="0.0000" fill="currentColor"/>
</g>
<text transform="translate(30.5381, 1.2292)" font-family="Century Schoolbook L" font-weight="bold" font-size="1.7461" text-anchor="start" fill="currentColor">
<tspan>
3</tspan>
</text>
<g color="rgb(100.0%, 100.0%, 100.0%)">
<rect transform="translate(30.4391, 8.1317)" x="0.0990" y="-0.6317" width="0.9902" height="1.2633" ry="0.0000" fill="currentColor"/>
</g>
<text transform="translate(30.5381, 8.7292)" font-family="Century Schoolbook L" font-weight="bold" font-size="1.7461" text-anchor="start" fill="currentColor">
<tspan>
0</tspan>
</text>
<g color="rgb(100.0%, 100.0%, 100.0%)">
<rect transform="translate(52.4846, 2.1317)" x="0.0990" y="-0.6317" width="0.9902" height="1.2633" ry="0.0000" fill="currentColor"/>
</g>
<text transform="translate(52.5836, 2.7292)" font-family="Century Schoolbook L" font-weight="bold" font-size="1.7461" text-anchor="start" fill="currentColor">
<tspan>
0</tspan>
</text>
<g color="rgb(100.0%, 100.0%, 100.0%)">
<rect transform="translate(52.4846, 0.6317)" x="0.0990" y="-0.6317" width="0.9902" height="1.2633" ry="0.0000" fill="currentColor"/>
</g>
<text transform="translate(52.5836, 1.2292)" font-family="Century Schoolbook L" font-weight="bold" font-size="1.7461" text-anchor="start" fill="currentColor">
<tspan>
2</tspan>
</text>
<g color="rgb(100.0%, 100.0%, 100.0%)">
<rect transform="translate(55.0429, 2.1317)" x="0.0990" y="-0.6317" width="0.9902" height="1.2633" ry="0.0000" fill="currentColor"/>
</g>
<text transform="translate(55.1419, 2.7292)" font-family="Century Schoolbook L" font-weight="bold" font-size="1.7461" text-anchor="start" fill="currentColor">
<tspan>
3</tspan>
</text>
<g color="rgb(100.0%, 100.0%, 100.0%)">
<rect transform="translate(57.6012, 0.6317)" x="0.0990" y="-0.6317" width="0.9902" height="1.2633" ry="0.0000" fill="currentColor"/>
</g>
<text transform="translate(57.7002, 1.2292)" font-family="Century Schoolbook L" font-weight="bold" font-size="1.7461" text-anchor="start" fill="currentColor">
<tspan>
2</tspan>
</text>
<rect transform="translate(8.4758, 4.3817)" x="0.0000" y="-3.8000" width="0.1600" height="7.6000" ry="0.0500" fill="currentColor"/>
<g color="rgb(100.0%, 100.0%, 100.0%)">
<rect transform="translate(38.1140, 0.6317)" x="0.0990" y="-0.6317" width="0.9902" height="1.2633" ry="0.0000" fill="currentColor"/>
</g>
<text transform="translate(38.2130, 1.2292)" font-family="Century Schoolbook L" font-weight="bold" font-size="1.7461" text-anchor="start" fill="currentColor">
<tspan>
2</tspan>
</text>
<g color="rgb(100.0%, 100.0%, 100.0%)">
<rect transform="translate(40.6723, 0.6317)" x="0.0990" y="-0.6317" width="0.9902" height="1.2633" ry="0.0000" fill="currentColor"/>
</g>
<text transform="translate(40.7713, 1.2292)" font-family="Century Schoolbook L" font-weight="bold" font-size="1.7461" text-anchor="start" fill="currentColor">
<tspan>
3</tspan>
</text>
<g color="rgb(100.0%, 100.0%, 100.0%)">
<rect transform="translate(49.9262, 0.6317)" x="0.0990" y="-0.6317" width="0.9902" height="1.2633" ry="0.0000" fill="currentColor"/>
</g>
<text transform="translate(50.0253, 1.2292)" font-family="Century Schoolbook L" font-weight="bold" font-size="1.7461" text-anchor="start" fill="currentColor">
<tspan>
2</tspan>
</text>
<g color="rgb(100.0%, 100.0%, 100.0%)">
<rect transform="translate(49.9262, 5.1317)" x="0.0990" y="-0.6317" width="0.9902" height="1.2633" ry="0.0000" fill="currentColor"/>
</g>
<text transform="translate(50.0253, 5.7292)" font-family="Century Schoolbook L" font-weight="bold" font-size="1.7461" text-anchor="start" fill="currentColor">
<tspan>
0</tspan>
</text>
<g color="rgb(100.0%, 100.0%, 100.0%)">
<rect transform="translate(44.6998, 0.6317)" x="0.0990" y="-0.6317" width="0.9902" height="1.2633" ry="0.0000" fill="currentColor"/>
</g>
<text transform="translate(44.7988, 1.2292)" font-family="Century Schoolbook L" font-weight="bold" font-size="1.7461" text-anchor="start" fill="currentColor">
<tspan>
7</tspan>
</text>
<g color="rgb(100.0%, 100.0%, 100.0%)">
<rect transform="translate(71.6730, 5.1317)" x="0.0990" y="-0.6317" width="0.9902" height="1.2633" ry="0.0000" fill="currentColor"/>
</g>
<text transform="translate(71.7720, 5.7292)" font-family="Century Schoolbook L" font-weight="bold" font-size="1.7461" text-anchor="start" fill="currentColor">
<tspan>
2</tspan>
</text>
<g color="rgb(100.0%, 100.0%, 100.0%)">
<rect transform="translate(74.2313, 3.6317)" x="0.0990" y="-0.6317" width="0.9902" height="1.2633" ry="0.0000" fill="currentColor"/>
</g>
<text transform="translate(74.3303, 4.2292)" font-family="Century Schoolbook L" font-weight="bold" font-size="1.7461" text-anchor="start" fill="currentColor">
<tspan>
0</tspan>
</text>
<g color="rgb(100.0%, 100.0%, 100.0%)">
<rect transform="translate(76.7896, 2.1317)" x="0.0990" y="-0.6317" width="0.9902" height="1.2633" ry="0.0000" fill="currentColor"/>
</g>
<text transform="translate(76.8887, 2.7292)" font-family="Century Schoolbook L" font-weight="bold" font-size="1.7461" text-anchor="start" fill="currentColor">
<tspan>
3</tspan>
</text>
<g color="rgb(100.0%, 100.0%, 100.0%)">
<rect transform="translate(63.9369, 2.1317)" x="0.0990" y="-0.6317" width="0.9902" height="1.2633" ry="0.0000" fill="currentColor"/>
</g>
<text transform="translate(64.0360, 2.7292)" font-family="Century Schoolbook L" font-weight="bold" font-size="1.7461" text-anchor="start" fill="currentColor">
<tspan>
0</tspan>
</text>
<g color="rgb(100.0%, 100.0%, 100.0%)">
<rect transform="translate(69.1147, 6.6317)" x="0.0990" y="-0.6317" width="0.9902" height="1.2633" ry="0.0000" fill="currentColor"/>
</g>
<text transform="translate(69.2137, 7.2292)" font-family="Century Schoolbook L" font-weight="bold" font-size="1.7461" text-anchor="start" fill="currentColor">
<tspan>
3</tspan>
</text>
<g color="rgb(100.0%, 100.0%, 100.0%)">
<rect transform="translate(69.1147, 0.6317)" x="0.0990" y="-0.6317" width="0.9902" height="1.2633" ry="0.0000" fill="currentColor"/>
</g>
<text transform="translate(69.2137, 1.2292)" font-family="Century Schoolbook L" font-weight="bold" font-size="1.7461" text-anchor="start" fill="currentColor">
<tspan>
0</tspan>
</text>
</svg>
